<!-- stolen from: https://feathericons.com/ -->
<svg xmlns="http://www.w3.org/2000/svg" class="hidden">
  <symbol id="copy" viewBox="0 0 24 24" >
    <rect x="9" y="9" width="13" height="13" rx="2" ry="2"/>
    <path d="M5 15H4a2 2 0 0 1-2-2V4a2 2 0 0 1 2-2h9a2 2 0 0 1 2 2v1"/>
  </symbol>
  <symbol id="info" viewBox="0 0 24 24">
    <circle cx="12" cy="12" r="10"></circle>
    <line x1="12" y1="16" x2="12" y2="12"></line>
    <line x1="12" y1="8" x2="12.01" y2="8"></line>
  </symbol>
  <symbol id="loader" viewBox="0 0 24 24">
    <line x1="12" y1="2" x2="12" y2="6"></line>
    <line x1="12" y1="18" x2="12" y2="22"></line>
    <line x1="4.93" y1="4.93" x2="7.76" y2="7.76"></line>
    <line x1="16.24" y1="16.24" x2="19.07" y2="19.07"></line>
    <line x1="2" y1="12" x2="6" y2="12"></line>
    <line x1="18" y1="12" x2="22" y2="12"></line>
    <line x1="4.93" y1="19.07" x2="7.76" y2="16.24"></line>
    <line x1="16.24" y1="7.76" x2="19.07" y2="4.93"></line>
  </symbol>
  <symbol id="menu" viewBox="0 0 24 24">
    <line x1="3" y1="12" x2="21" y2="12"></line>
    <line x1="3" y1="6" x2="21" y2="6"></line>
    <line x1="3" y1="18" x2="21" y2="18"></line>
  </symbol>
  <symbol id="monitor" viewBox="0 0 24 24">
    <rect x="2" y="3" width="20" height="14" rx="2" ry="2"></rect>
    <line x1="8" y1="21" x2="16" y2="21"></line>
    <line x1="12" y1="17" x2="12" y2="21"></line>
  </symbol>
  <symbol id="moon" viewBox="0 0 24 24">
    <path d="M21 12.79A9 9 0 1 1 11.21 3 7 7 0 0 0 21 12.79z"></path>
  </symbol>
  <symbol id="sun" viewBox="0 0 24 24">
    <circle cx="12" cy="12" r="5"></circle>
    <line x1="12" y1="1" x2="12" y2="3"></line>
    <line x1="12" y1="21" x2="12" y2="23"></line>
    <line x1="4.22" y1="4.22" x2="5.64" y2="5.64"></line>
    <line x1="18.36" y1="18.36" x2="19.78" y2="19.78"></line>
    <line x1="1" y1="12" x2="3" y2="12"></line>
    <line x1="21" y1="12" x2="23" y2="12"></line>
    <line x1="4.22" y1="19.78" x2="5.64" y2="18.36"></line>
    <line x1="18.36" y1="5.64" x2="19.78" y2="4.22"></line>
  </symbol>
</svg>
